<?xml version="1.0" encoding="UTF-8" standalone="no" ?>
<!DOCTYPE svg PUBLIC "-//W3C//DTD SVG 1.1//EN" "http://www.w3.org/Graphics/SVG/1.1/DTD/svg11.dtd">
<svg xmlns="http://www.w3.org/2000/svg" xmlns:xlink="http://www.w3.org/1999/xlink" version="1.1" width="640" height="640" viewBox="0 0 640 640" xml:space="preserve">
<desc>Created with Fabric.js 5.3.0</desc>
<defs>
</defs>
<g transform="matrix(9.110625 0 0 9.110625 395 395)" id="9CAvRovFULP7TEjZZ0aAa"  >
<path style="stroke: rgb(32,51,220); stroke-width: 0; stroke-dasharray: none; stroke-linecap: butt; stroke-dashoffset: 0; stroke-linejoin: miter; stroke-miterlimit: 4; fill: rgb(255,255,255); fill-rule: nonzero; opacity: 1;"  transform=" translate(0, 0)" d="M 0 -23.59882 C 13.02655 -23.59882 23.59882 -13.02655 23.59882 0 C 23.59882 13.02655 13.02655 23.59882 0 23.59882 C -13.02655 23.59882 -23.59882 13.02655 -23.59882 0 C -23.59882 -13.02655 -13.02655 -23.59882 0 -23.59882 z" stroke-linecap="round" />
</g>
<g transform="matrix(1 0 0 1 320 320)" id="sjR_U9kk6n7jMEXHJHnFQ"  >
<linearGradient id="SVGID_0" gradientUnits="userSpaceOnUse" gradientTransform="matrix(1 0 0 1 0 0)"  x1="0" y1="0" x2="640" y2="640">
<stop offset="0%" style="stop-color:rgb(108,59,244);stop-opacity: 1"/>
<stop offset="100%" style="stop-color:rgb(244,39,157);stop-opacity: 1"/>
</linearGradient>
<path style="stroke: rgb(0,0,0); stroke-width: 0; stroke-dasharray: none; stroke-linecap: butt; stroke-dashoffset: 0; stroke-linejoin: miter; stroke-miterlimit: 4; fill: url(#SVGID_0); fill-rule: nonzero; opacity: 1;"  transform=" translate(-320, -320)" d="M 0 135.7645 C 0 60.78384 60.78384 0 135.7645 0 L 504.2355 0 C 579.21616 0 640 60.78384 640 135.7645 L 640 504.2355 C 640 579.21616 579.21616 640 504.2355 640 L 135.7645 640 C 60.78384 640 0 579.21616 0 504.2355 z M 344.99995 244.869 C 344.99995 249.7979 342.03085 254.24145 337.47715 256.12765 C 332.92345 258.01385 327.6819 256.97125 324.19665 253.48600000000002 L 306.36775 235.6571 C 296.73935 226.02865000000003 281.1286 226.02865000000003 271.50015 235.6571 L 236.08065000000002 271.0766 C 226.21830000000003 280.93895 226.21830000000003 296.929 236.08065000000002 306.79134999999997 L 253.55585000000002 324.26654999999994 C 257.0294 327.7400999999999 258.06850000000003 332.96404999999993 256.18865 337.50244999999995 C 254.3088 342.04089999999997 249.88015 344.99999999999994 244.96779999999998 344.99999999999994 L 219.8268 344.99999999999994 C 206.11534999999998 344.99999999999994 195 356.1153499999999 195 369.82679999999993 L 195 419.93839999999994 C 195 433.77955 206.22045 444.99999999999994 220.0616 444.99999999999994 L 244.9305 444.99999999999994 C 249.8491 444.99999999999994 254.2834 447.96284999999995 256.16564999999997 452.50704999999994 C 258.04789999999997 457.0512499999999 257.00744999999995 462.28184999999996 253.52949999999998 465.7597999999999 L 235.87025 483.4190499999999 C 226.1241 493.1651499999999 226.1241 508.96674999999993 235.87025 518.7128999999999 L 271.27655 554.1191999999999 C 281.0285 563.8711499999998 296.8395 563.8711499999998 306.59145 554.1191999999999 L 324.4626 536.2480499999999 C 327.9033 532.8073499999999 333.07785 531.7780499999999 337.57335 533.64015 C 342.06885 535.50225 345 539.8889999999999 345 544.7548999999999 L 345 570.0285499999999 C 345 583.8198499999999 356.18005 594.9999499999999 369.9714 594.9999499999999 L 420.33000000000004 594.9999499999999 C 433.95485 594.9999499999999 445.00000000000006 583.9547999999999 445.00000000000006 570.3299499999999 L 445.00000000000006 545.2187499999999 C 445.00000000000006 540.2751499999999 447.9779500000001 535.8183499999999 452.54525000000007 533.9264999999999 C 457.11255000000006 532.0346999999999 462.36975000000007 533.0803999999999 465.8654000000001 536.5760499999999 L 483.4085500000001 554.1191999999999 C 493.1605000000001 563.8711499999998 508.9715000000001 563.8711499999998 518.7234500000001 554.1191999999999 L 553.9114500000001 518.9311999999999 C 563.7781500000001 509.0644999999999 563.7781500000001 493.0674499999999 553.9114500000001 483.20074999999986 L 536.368 465.65729999999985 C 532.9072000000001 462.19649999999984 531.8719500000001 456.99174999999985 533.7449 452.46999999999986 C 535.61785 447.94824999999986 540.03025 444.99999999999983 544.9245500000001 444.99999999999983 L 570.0323500000001 444.99999999999983 C 583.8216000000001 444.99999999999983 595.0000000000001 433.8215999999998 595.0000000000001 420.03234999999984 L 595.0000000000001 370.25034999999986 C 595.0000000000001 356.30494999999985 583.6950500000002 344.99999999999983 569.7496500000001 344.99999999999983 L 545.1222000000001 344.99999999999983 C 540.1948000000001 344.99999999999983 535.7525500000002 342.0317999999998 533.8669000000001 337.4794499999998 C 531.98125 332.9270999999998 533.0235500000001 327.6870999999998 536.5077500000001 324.20289999999983 L 553.9114500000001 306.7991999999998 C 563.7781500000001 296.93249999999983 563.7781500000001 280.93544999999983 553.9114500000001 271.0687499999998 L 518.9207 236.0779999999998 C 509.05985 226.2170999999998 493.0722 226.2170999999998 483.2113 236.0779999999998 L 465.69975 253.5895499999998 C 462.23185 257.0574499999998 457.0164 258.0948499999998 452.48535 256.2180499999998 C 447.9543 254.34124999999977 445 249.91979999999978 445 245.0154499999998 L 445 219.95274999999978 C 445 206.1716999999998 433.82825 194.99999999999977 420.04725 194.99999999999977 L 369.9565 194.99999999999977 C 356.17335 194.99999999999977 344.99995 206.17344999999978 344.99995 219.95654999999977 z M 395 259.99995 C 469.52 259.99995 530 320.47995000000003 530 394.99995 C 530 469.51995 469.52 529.99995 395 529.99995 C 320.48 529.99995 260 469.51995 260 394.99995 C 260 320.47995000000003 320.48 259.99995 395 259.99995 z M 277.49995 394.9999 C 277.49995 459.85990000000004 330.13995 512.4999 394.99995 512.4999 C 459.85995 512.4999 512.49995 459.85990000000004 512.49995 394.9999 C 512.49995 330.1399 459.85995 277.4999 394.99995 277.4999 C 330.13995 277.4999 277.49995 330.1399 277.49995 394.9999 z M 459.62205 317.4999 C 466.7344 317.4999 472.5001 323.2656 472.5001 330.37795 C 472.5001 337.53294999999997 466.6998 343.33325 459.54479999999995 343.33325 L 421.03419999999994 343.33325 C 413.78959999999995 343.33325 407.9167499999999 349.20615000000004 407.9167499999999 356.45070000000004 L 407.9167499999999 369.12665000000004 C 407.9167499999999 376.28235000000006 413.71759999999995 382.08325 420.8733499999999 382.08325 L 446.6850999999999 382.08325 C 453.80864999999994 382.08325 459.5833999999999 387.858 459.5833999999999 394.98155 C 459.5833999999999 402.1254 453.79214999999994 407.9166 446.64834999999994 407.9166 L 420.76384999999993 407.9166 C 413.6685499999999 407.9166 407.91669999999993 413.66845 407.91669999999993 420.76375 L 407.91669999999993 433.60865 C 407.91669999999993 440.8204 413.7629999999999 446.66665 420.9746999999999 446.66665 L 459.48529999999994 446.66665 C 466.67314999999996 446.66665 472.50004999999993 452.49355 472.50004999999993 459.6814 C 472.50004999999993 466.7609 466.7609499999999 472.5 459.6814499999999 472.5 L 394.95214999999996 472.5 C 387.84489999999994 472.5 382.08334999999994 466.73845 382.08334999999994 459.6312 L 382.08334999999994 356.30075 C 382.08334999999994 349.13905 376.27764999999994 343.3333 369.11589999999995 343.3333 L 330.43634999999995 343.3333 C 323.29179999999997 343.3333 317.49999999999994 337.5415 317.49999999999994 330.39695 C 317.49999999999994 323.27415 323.27419999999995 317.49995 330.39699999999993 317.49995 z" stroke-linecap="round" />
</g>
</svg>